<svg xmlns="http://www.w3.org/2000/svg" width="800" height="800" viewBox="0 0 16 16"><path fill="#da1636" d="M6 0v1h-.994c-.438 0-.786.007-1.078.117s-.528.308-.666.559C2.985 2.178 3.01 2.792 3 3.631v8.707c.01.839-.015 1.451.262 1.953.138.251.374.45.666.56s.64.15 1.078.15H11c.439 0 .786-.04 1.078-.15a1.25 1.25 0 0 0 .664-.56c.277-.502.248-1.114.258-1.953V3.631c-.01-.839.02-1.453-.258-1.955a1.25 1.25 0 0 0-.664-.559C11.786 1.007 11.438 1 11 1h-1V0zm-.994 2H11c.428 0 .664.03.727.053.086.032.125.076.14.105.095.173.123.618.133 1.475v8.705c-.01.854-.038 1.298-.133 1.47-.016.03-.055.074-.14.106-.123.046-.349.086-.727.086H5.006c-.378 0-.604-.04-.727-.086a.27.27 0 0 1-.142-.105c-.098-.178-.126-.62-.137-1.485V3.633c.01-.853.04-1.298.137-1.475.016-.028.057-.073.143-.105.06-.023.298-.053.726-.053m2.285 1v2.662q.001 1.19.086 2.168.085.963.213 1.926h.82q.128-.963.213-1.926.086-.977.086-2.168V3zm.71 8.102q-.44 0-.694.283a.97.97 0 0 0-.256.666q0 .383.256.666Q7.561 13 8 13q.44 0 .694-.283a.97.97 0 0 0 .255-.666.97.97 0 0 0-.255-.666q-.255-.284-.694-.283z" class="error" color="#000" font-family="sans-serif" font-weight="400" overflow="visible" style="line-height:normal;font-variant-ligatures:none;font-variant-position:normal;font-variant-caps:normal;font-variant-numeric:normal;font-variant-alternates:normal;font-feature-settings:normal;text-indent:0;text-align:start;text-decoration-line:none;text-decoration-style:solid;text-decoration-color:#000;text-transform:none;shape-padding:0;isolation:auto;mix-blend-mode:normal;marker:none"/></svg>